<?xml version="1.0" encoding="utf-8"?>
<!-- Generator: Adobe Illustrator 13.0.0, SVG Export Plug-In . SVG Version: 6.00 Build 14948)  -->
<!DOCTYPE svg PUBLIC "-//W3C//DTD SVG 1.1//EN" "http://www.w3.org/Graphics/SVG/1.1/DTD/svg11.dtd">
<svg version="1.1" id="Layer_1" xmlns="http://www.w3.org/2000/svg" xmlns:xlink="http://www.w3.org/1999/xlink" x="0px" y="0px"
	 width="281.487px" height="230.5px" viewBox="0 0 281.487 230.5" enable-background="new 0 0 281.487 230.5" xml:space="preserve">
<radialGradient id="SVGID_1_" cx="163.3779" cy="229.8267" r="263.9612" gradientTransform="matrix(0.794 0 0 0.8236 4.8687 5.0927)" gradientUnits="userSpaceOnUse">
	<stop  offset="0" style="stop-color:#AFC3E5"/>
	<stop  offset="0.277" style="stop-color:#ABC0E3"/>
	<stop  offset="0.4246" style="stop-color:#A1B6DB"/>
	<stop  offset="0.5417" style="stop-color:#94A6D0"/>
	<stop  offset="0.6429" style="stop-color:#8393C2"/>
	<stop  offset="0.7337" style="stop-color:#6F7CB0"/>
	<stop  offset="0.817" style="stop-color:#59649D"/>
	<stop  offset="0.8948" style="stop-color:#404A89"/>
	<stop  offset="0.9661" style="stop-color:#252F74"/>
	<stop  offset="1" style="stop-color:#18206B"/>
</radialGradient>
<rect x="1.117" fill="url(#SVGID_1_)" width="279.5" height="194.377"/>
<path fill="#FFFFFF" d="M11.815,230.5c0,0,0.653-122.5,0.653-149.729c26.354-33.583,67.308-58.162,113.308-58.162
	c79.311,0,143.636,64.136,143.953,143.373h0.007V230.5h11.751v-76.271h-0.489c-6.297-80.231-73.375-143.364-155.221-143.373
	C72.256,10.858,27.996,35.895,0,77.018L0.063,230.5H11.815z"/>
<path fill="#FFFFFF" d="M125.035,210.821l10.838,18.679h50.252c-16.188-17.315-34.969-40.883-30.049-52.642
	c1.704,1.435,23.854,7.32,22.127,0.858c-1.724-6.461-1.645-11.187-1.645-11.187s3.581-1.334,2.145-4.258
	c-1.438-2.925-10.34-3.251-8.423-6.511c1.916-3.259,10.747-8.501,10.747-8.501l-1.308-1.275c0,0,7.991-6.861,6.764-8.062
	c-1.229-1.202-9.709-6.117-15.068-10.978c-5.361-4.861-1.804-15.265-7.736-24.809c-4.927-7.929-16.292-9.668-16.292-9.668
	l-29.291,23.329l-6.311,32.59l2.523,32.246L125.035,210.821z"/>
<path fill="#4E3300" d="M151.241,91.687C133.617,51.5,49.617,81,74.117,145.5c14.135,37.213-11.007,21.93-19,20
	c1.086,0.618,10.5,30,48.422,23.735c25.247-4.171,51.078-35.235,41.915-61.064C146.142,120.563,156.582,103.864,151.241,91.687z"/>
<path d="M167.441,118.026c-3.779,6.829-17.35-0.78-18.209,11.315C153.013,119.197,168.814,127.781,167.441,118.026z"/>
<path d="M155.761,133.438c0,0,9.276-2.341,8.243-7.413c0,0,1.548,4.292,3.438,3.901c0,0-6.183,2.536-10.479,3.902L155.761,133.438z"
	/>
<path fill="#971B1E" d="M169.309,156.426c0,0,8.981-10.745,11.8-8.807c2.818,1.938-10.742,8.983-10.742,8.983
	s11.097,4.756,8.631,8.103C176.53,168.051,169.309,156.426,169.309,156.426z"/>
<g>
	<path d="M19.3,67.063V46.489h2.723v20.575H19.3z"/>
	<path d="M41.503,59.85l2.723,0.688c-0.571,2.236-1.598,3.941-3.081,5.115c-1.483,1.174-3.296,1.762-5.438,1.762
		c-2.218,0-4.021-0.452-5.411-1.354c-1.389-0.903-2.447-2.21-3.172-3.923c-0.725-1.712-1.087-3.551-1.087-5.516
		c0-2.143,0.409-4.011,1.228-5.607c0.818-1.595,1.983-2.807,3.495-3.635c1.511-0.828,3.174-1.242,4.989-1.242
		c2.058,0,3.79,0.524,5.193,1.572c1.403,1.048,2.381,2.522,2.933,4.421l-2.681,0.632c-0.477-1.497-1.169-2.587-2.077-3.27
		s-2.049-1.024-3.424-1.024c-1.582,0-2.903,0.379-3.965,1.137s-1.808,1.775-2.238,3.052c-0.431,1.277-0.646,2.594-0.646,3.951
		c0,1.75,0.255,3.277,0.765,4.583c0.51,1.305,1.303,2.281,2.379,2.926c1.076,0.646,2.241,0.968,3.495,0.968
		c1.525,0,2.816-0.439,3.874-1.319C40.413,62.886,41.128,61.581,41.503,59.85z"/>
	<path d="M46.752,57.042c0-3.415,0.917-6.088,2.75-8.021s4.201-2.898,7.102-2.898c1.899,0,3.612,0.454,5.137,1.362
		c1.525,0.907,2.688,2.173,3.488,3.796c0.8,1.624,1.2,3.465,1.2,5.523c0,2.086-0.421,3.953-1.263,5.6
		c-0.842,1.647-2.035,2.894-3.579,3.74c-1.544,0.847-3.209,1.271-4.997,1.271c-1.937,0-3.667-0.468-5.193-1.404
		c-1.525-0.936-2.68-2.212-3.466-3.832C47.145,60.561,46.752,58.849,46.752,57.042z M49.559,57.085c0,2.479,0.667,4.433,2,5.859
		s3.006,2.14,5.018,2.14c2.049,0,3.735-0.72,5.06-2.161c1.324-1.441,1.986-3.485,1.986-6.133c0-1.675-0.283-3.137-0.849-4.386
		c-0.566-1.249-1.395-2.217-2.484-2.905c-1.09-0.688-2.313-1.031-3.67-1.031c-1.928,0-3.586,0.662-4.976,1.986
		C50.253,51.777,49.559,53.988,49.559,57.085z"/>
	<path d="M67.846,67.063l7.958-10.723l-7.018-9.852h3.242l3.733,5.277c0.776,1.095,1.328,1.937,1.656,2.526
		c0.458-0.749,1.001-1.53,1.628-2.344l4.14-5.459h2.961l-7.228,9.698l7.789,10.877H83.34l-5.179-7.34
		c-0.29-0.421-0.589-0.879-0.898-1.375c-0.458,0.749-0.786,1.263-0.982,1.543l-5.165,7.172H67.846z"/>
	<path d="M97.094,67.063V46.489h7.761c1.366,0,2.409,0.065,3.13,0.196c1.01,0.168,1.857,0.489,2.54,0.961
		c0.683,0.473,1.233,1.135,1.649,1.986c0.416,0.852,0.625,1.787,0.625,2.807c0,1.75-0.557,3.23-1.67,4.442
		c-1.113,1.212-3.125,1.817-6.035,1.817h-5.277v8.365H97.094z M99.817,56.271h5.319c1.759,0,3.008-0.328,3.748-0.982
		c0.739-0.655,1.108-1.577,1.108-2.765c0-0.861-0.217-1.598-0.652-2.21s-1.008-1.018-1.719-1.214
		c-0.458-0.122-1.305-0.183-2.541-0.183h-5.263V56.271z"/>
	<path d="M129.767,46.489h2.723v11.887c0,2.068-0.234,3.71-0.702,4.926s-1.312,2.206-2.533,2.968s-2.823,1.144-4.807,1.144
		c-1.928,0-3.504-0.333-4.73-0.997c-1.226-0.665-2.101-1.625-2.625-2.884c-0.524-1.258-0.786-2.978-0.786-5.158V46.489h2.723v11.873
		c0,1.788,0.166,3.104,0.498,3.951c0.332,0.847,0.903,1.5,1.712,1.958c0.809,0.458,1.798,0.688,2.968,0.688
		c2.002,0,3.429-0.454,4.281-1.362c0.851-0.907,1.277-2.652,1.277-5.235V46.489z"/>
	<path d="M136.911,67.063V46.489h7.719c1.572,0,2.833,0.208,3.782,0.625s1.693,1.057,2.231,1.923
		c0.538,0.865,0.807,1.771,0.807,2.715c0,0.88-0.238,1.708-0.716,2.484c-0.477,0.777-1.198,1.403-2.161,1.88
		c1.244,0.365,2.201,0.987,2.87,1.867c0.669,0.88,1.003,1.918,1.003,3.116c0,0.964-0.204,1.86-0.61,2.688
		c-0.407,0.828-0.91,1.466-1.509,1.916c-0.599,0.449-1.35,0.788-2.252,1.018c-0.903,0.229-2.01,0.344-3.319,0.344H136.911z
		 M139.634,55.134h4.449c1.207,0,2.072-0.079,2.597-0.238c0.692-0.206,1.214-0.547,1.564-1.024c0.351-0.478,0.526-1.076,0.526-1.797
		c0-0.683-0.164-1.284-0.491-1.803c-0.328-0.52-0.795-0.875-1.403-1.066c-0.608-0.192-1.651-0.288-3.13-0.288h-4.112V55.134z
		 M139.634,64.635h5.123c0.879,0,1.497-0.032,1.853-0.098c0.626-0.112,1.151-0.299,1.572-0.561c0.421-0.262,0.767-0.644,1.039-1.144
		s0.407-1.078,0.407-1.733c0-0.767-0.197-1.434-0.59-2c-0.393-0.566-0.938-0.963-1.635-1.193c-0.697-0.229-1.701-0.344-3.011-0.344
		h-4.757V64.635z"/>
	<path d="M156.082,67.063V46.489h2.723v18.146h10.133v2.428H156.082z"/>
	<path d="M172.643,67.063V46.489h2.723v20.575H172.643z"/>
	<path d="M179.239,60.453l2.568-0.225c0.122,1.029,0.404,1.874,0.85,2.533c0.444,0.66,1.134,1.193,2.069,1.6s1.988,0.61,3.158,0.61
		c1.039,0,1.955-0.154,2.751-0.463c0.795-0.309,1.387-0.732,1.775-1.27c0.388-0.538,0.582-1.125,0.582-1.762
		c0-0.646-0.188-1.209-0.562-1.691s-0.991-0.887-1.853-1.214c-0.552-0.215-1.772-0.549-3.663-1.003
		c-1.89-0.454-3.214-0.882-3.972-1.284c-0.982-0.514-1.715-1.153-2.196-1.916s-0.723-1.616-0.723-2.562
		c0-1.039,0.295-2.009,0.884-2.912c0.59-0.903,1.45-1.588,2.583-2.056c1.132-0.468,2.391-0.702,3.775-0.702
		c1.524,0,2.87,0.246,4.034,0.737c1.165,0.491,2.062,1.214,2.688,2.168c0.626,0.954,0.963,2.035,1.01,3.242l-2.61,0.196
		c-0.14-1.3-0.615-2.283-1.424-2.947c-0.81-0.664-2.005-0.997-3.586-0.997c-1.647,0-2.848,0.302-3.601,0.905s-1.13,1.331-1.13,2.183
		c0,0.739,0.268,1.347,0.801,1.824c0.523,0.478,1.892,0.966,4.104,1.467s3.731,0.938,4.555,1.312
		c1.197,0.552,2.082,1.251,2.652,2.098c0.57,0.847,0.856,1.823,0.856,2.926c0,1.095-0.313,2.126-0.94,3.095s-1.527,1.722-2.702,2.26
		c-1.174,0.538-2.496,0.807-3.965,0.807c-1.861,0-3.422-0.271-4.681-0.814c-1.258-0.542-2.245-1.359-2.961-2.449
		S179.276,61.829,179.239,60.453z"/>
	<path d="M199.421,67.063V46.489h2.723v8.449h10.694v-8.449h2.723v20.575h-2.723v-9.698h-10.694v9.698H199.421z"/>
	<path d="M220.557,67.063V46.489h2.723v20.575H220.557z"/>
	<path d="M228.051,67.063V46.489h2.793l10.807,16.154V46.489h2.61v20.575h-2.793l-10.807-16.168v16.168H228.051z"/>
	<path d="M258.464,58.994V56.58l8.715-0.014V64.2c-1.338,1.067-2.718,1.869-4.14,2.407c-1.423,0.538-2.882,0.807-4.379,0.807
		c-2.021,0-3.857-0.433-5.509-1.298s-2.898-2.117-3.74-3.754c-0.842-1.637-1.264-3.466-1.264-5.487c0-2.002,0.419-3.872,1.257-5.607
		c0.837-1.736,2.042-3.024,3.613-3.867c1.572-0.842,3.383-1.263,5.432-1.263c1.488,0,2.833,0.241,4.035,0.723
		c1.202,0.482,2.145,1.153,2.828,2.014c0.683,0.861,1.202,1.984,1.558,3.368l-2.456,0.674c-0.309-1.048-0.692-1.871-1.15-2.47
		c-0.459-0.599-1.114-1.078-1.965-1.438c-0.852-0.36-1.797-0.54-2.835-0.54c-1.245,0-2.321,0.189-3.229,0.568
		s-1.64,0.877-2.196,1.495c-0.557,0.617-0.989,1.296-1.298,2.035c-0.524,1.273-0.786,2.653-0.786,4.141
		c0,1.834,0.315,3.368,0.947,4.603c0.632,1.235,1.551,2.152,2.758,2.751c1.207,0.599,2.488,0.898,3.846,0.898
		c1.179,0,2.329-0.227,3.452-0.681c1.123-0.454,1.974-0.938,2.555-1.453v-3.832H258.464z"/>
</g>
</svg>
